<svg width="64" height="64" viewBox="0 0 64 64" fill="none" xmlns="http://www.w3.org/2000/svg">
  <rect x="8" y="8" width="48" height="48" rx="14" fill="#061425"/>
  <path d="M32 12l4.7 14.2L51 31l-14.3 4.8L32 50l-4.7-14.2L13 31l14.3-4.8L32 12z" fill="#72F7FF"/>
  <path d="M17 11l1.9 5.7L25 19l-6.1 2.3L17 27l-1.9-5.7L9 19l6.1-2.3L17 11zM49 39l1.5 4.5L55 45l-4.5 1.5L49 51l-1.5-4.5L43 45l4.5-1.5L49 39z" fill="#9D68FF"/>
  <path d="M32 12l4.7 14.2L51 31l-14.3 4.8L32 50l-4.7-14.2L13 31l14.3-4.8L32 12z" stroke="#DFFBFF" stroke-width="2" stroke-linejoin="round"/>
</svg>
