<svg xmlns="http://www.w3.org/2000/svg" width="1280" height="720" viewBox="0 0 1280 720">
  <rect width="1280" height="720" fill="#050711"/>
  <path d="M0 566h1280M0 622h1280M0 678h1280M112 500l-90 220M252 500l-36 220M392 500l12 220M532 500l60 220M672 500l108 220M812 500l156 220M952 500l204 220" stroke="#0a6f8b" stroke-width="2" opacity=".55"/>
  <ellipse cx="650" cy="508" rx="320" ry="92" fill="none" stroke="#00e5ff" stroke-width="8" opacity=".8"/>
  <rect x="322" y="268" width="480" height="210" rx="12" fill="#071426" stroke="#00e5ff" stroke-width="4"/>
  <rect x="394" y="318" width="336" height="96" fill="#10d8eb" opacity=".9"/>
  <rect x="408" y="430" width="305" height="18" fill="#ff3df2"/>
  <rect x="284" y="178" width="560" height="60" rx="8" fill="#062638"/>
  <text x="562" y="220" text-anchor="middle" fill="#72f7ff" font-family="Consolas,monospace" font-size="44" font-weight="700">XH BLOG</text>
  <g transform="translate(910 238) rotate(-10)">
    <line x1="48" y1="112" x2="48" y2="330" stroke="#00e5ff" stroke-width="10"/>
    <rect x="-42" y="28" width="190" height="52" fill="#071426" stroke="#72f7ff" stroke-width="5"/>
    <rect x="-72" y="104" width="190" height="52" fill="#071426" stroke="#ff3df2" stroke-width="5"/>
    <rect x="-14" y="180" width="190" height="52" fill="#071426" stroke="#ffc65a" stroke-width="5"/>
    <text x="52" y="64" fill="#72f7ff" text-anchor="middle" font-family="Consolas,monospace" font-size="28">POSTS</text>
    <text x="22" y="140" fill="#ff8df8" text-anchor="middle" font-family="Consolas,monospace" font-size="28">ABOUT</text>
    <text x="82" y="216" fill="#ffc65a" text-anchor="middle" font-family="Consolas,monospace" font-size="28">MSG</text>
  </g>
  <g transform="translate(782 482)">
    <ellipse cx="0" cy="26" rx="60" ry="42" fill="#15192a" stroke="#72f7ff" stroke-width="3"/>
    <circle cx="42" cy="-8" r="38" fill="#15192a" stroke="#ff3df2" stroke-width="3"/>
    <path d="M18-38l18-40 22 44M58-38l28-34 5 46" fill="#15192a" stroke="#72f7ff" stroke-width="3"/>
    <circle cx="30" cy="-12" r="5" fill="#8fffff"/>
    <circle cx="54" cy="-12" r="5" fill="#8fffff"/>
    <path d="M-48 20c-42-48 24-96 64-64" fill="none" stroke="#72f7ff" stroke-width="8" stroke-linecap="round"/>
  </g>
</svg>